Coordinates
version=1
nRows=19
nColumns=63
inDegrees=yes

Units are S.I. units (second, meters, Newtons, ...)
If the header above contains a line with 'inDegrees', this indicates whether rotational values are in degrees (yes) or radians (no).

endheader
time	pelvis_tilt	pelvis_list	pelvis_rotation	pelvis_tx	pelvis_ty	pelvis_tz	hip_flexion_r	hip_adduction_r	hip_rotation_r	knee_angle_r	knee_angle_r_beta	ankle_angle_r	subtalar_angle_r	mtp_angle_r	hip_flexion_l	hip_adduction_l	hip_rotation_l	knee_angle_l	knee_angle_l_beta	ankle_angle_l	subtalar_angle_l	mtp_angle_l	L5_S1_Flex_Ext	L5_S1_Lat_Bending	L5_S1_axial_rotation	L4_L5_Flex_Ext	L4_L5_Lat_Bending	L4_L5_axial_rotation	L3_L4_Flex_Ext	L3_L4_Lat_Bending	L3_L4_axial_rotation	L2_L3_Flex_Ext	L2_L3_Lat_Bending	L2_L3_axial_rotation	L1_L2_Flex_Ext	L1_L2_Lat_Bending	L1_L2_axial_rotation	L1_T12_Flex_Ext	L1_T12_Lat_Bending	L1_T12_axial_rotation	Abs_r3	Abs_r2	Abs_r1	Abs_t1	Abs_t2	neck_flexion	neck_bending	neck_rotation	arm_flex_r	arm_add_r	arm_rot_r	elbow_flex_r	pro_sup_r	wrist_flex_r	wrist_dev_r	arm_flex_l	arm_add_l	arm_rot_l	elbow_flex_l	pro_sup_l	wrist_flex_l	wrist_dev_l
5.450000	1.815608	0.368805	89.212601	0.243980	0.876505	0.655990	-2.231900	1.707621	7.810860	3.423090	0.059744	27.982876	-11.345191	0.000000	-3.787750	-2.900527	2.949955	0.328745	0.005738	34.321539	6.092045	0.000000	-0.218115	0.448992	-0.355793	-0.405061	0.597160	-0.378031	-0.358340	1.091680	-0.378031	-0.249283	1.091680	-0.311319	-0.202541	0.915585	-0.289082	-0.124631	0.695489	-0.266845	-1.557971	5.079093	-1.978816	0.000000	0.000000	27.776995	-1.483315	0.521897	-6.098080	-17.548450	15.103784	32.135699	84.271986	-9.365258	2.201529	3.184330	-13.286372	101.716006	4.713091	7.600346	-1.621074	-11.752399
5.466667	1.728454	0.506983	89.005695	0.244577	0.876771	0.654841	-2.342222	1.641613	7.976573	3.627234	0.063307	27.918030	-11.911653	0.000000	-3.994627	-2.823761	2.715426	0.391013	0.006824	34.477372	6.767765	0.000000	-0.221326	0.438370	-0.322169	-0.411025	0.583032	-0.342305	-0.363617	1.065852	-0.342305	-0.252954	1.065852	-0.281898	-0.205524	0.893923	-0.261763	-0.126466	0.679035	-0.241627	-1.580911	4.958925	-1.791810	0.000000	0.000000	27.820933	-1.236946	0.443471	-6.387909	-17.443003	14.771542	32.393087	84.452191	-9.258834	2.623676	3.283877	-13.256666	103.136746	4.529879	6.957290	-1.380275	-11.948828
5.483333	1.628228	0.650656	88.792483	0.245165	0.877053	0.653657	-2.433783	1.559716	8.050595	3.855141	0.067285	27.976305	-12.288267	0.000000	-4.164249	-2.734147	2.362844	0.521363	0.009099	34.697586	7.547162	0.000000	-0.224150	0.425715	-0.291227	-0.416269	0.566201	-0.309428	-0.368256	1.035084	-0.309428	-0.256181	1.035084	-0.254823	-0.208146	0.868118	-0.236622	-0.128079	0.659433	-0.218420	-1.601082	4.815774	-1.619715	0.000000	0.000000	27.818683	-0.973181	0.378848	-6.667093	-17.335552	14.490452	32.629474	84.476828	-9.129059	3.071140	3.361446	-13.240367	104.492164	4.391945	6.471555	-1.260813	-12.125232
5.500000	1.517552	0.796672	88.572292	0.245727	0.877309	0.652452	-2.541015	1.463914	8.201385	4.031780	0.070368	28.105768	-12.621518	0.000000	-4.302524	-2.638895	1.819656	0.698622	0.012193	35.004467	8.527759	0.000000	-0.227458	0.411825	-0.264050	-0.422413	0.547727	-0.280553	-0.373691	1.001311	-0.280553	-0.259962	1.001311	-0.231044	-0.211218	0.839794	-0.214540	-0.129970	0.637917	-0.198037	-1.624711	4.658647	-1.468566	0.000000	0.000000	27.849397	-0.702523	0.362737	-6.917788	-17.231100	14.275727	32.826032	84.380922	-8.990305	3.489187	3.405812	-13.205127	105.873933	4.234881	6.034679	-1.198219	-12.275215
5.516667	1.394815	0.954493	88.395852	0.246207	0.877536	0.651283	-2.662803	1.354770	8.392621	4.183679	0.073019	28.306169	-12.925153	0.000000	-4.398109	-2.530356	1.321415	0.949738	0.016576	35.373169	9.422684	0.000000	-0.233061	0.396705	-0.251862	-0.432818	0.527618	-0.267604	-0.382896	0.964550	-0.267604	-0.266366	0.964550	-0.220380	-0.216421	0.808962	-0.204638	-0.133171	0.614497	-0.188897	-1.664733	4.487612	-1.400783	0.000000	0.000000	27.874874	-0.454358	0.397192	-7.118935	-17.112111	14.066169	32.972920	84.545077	-8.897054	3.911541	3.417080	-13.156569	107.331922	4.072966	5.523960	-1.185368	-12.397671
5.533333	1.266597	1.115293	88.220186	0.246650	0.877721	0.650216	-2.784178	1.237577	8.650915	4.312084	0.075260	28.595044	-13.117144	0.000000	-4.432203	-2.418856	0.750834	1.305186	0.022780	35.820175	10.299625	0.000000	-0.240043	0.381447	-0.247379	-0.445784	0.507325	-0.262840	-0.394367	0.927451	-0.262840	-0.274345	0.927451	-0.216456	-0.222904	0.777848	-0.200995	-0.137161	0.590862	-0.185534	-1.714603	4.315009	-1.375847	0.000000	0.000000	27.866610	-0.247046	0.478962	-7.224616	-17.006299	14.066416	33.008522	84.526571	-8.829332	4.232048	3.396855	-13.084246	108.790040	3.898081	5.097370	-1.241831	-12.434267
5.550000	1.134048	1.267165	88.039668	0.246997	0.877860	0.649326	-2.860678	1.111501	8.840905	4.472554	0.078061	28.995172	-13.081418	0.000000	-4.398766	-2.299841	0.147055	1.745870	0.030471	36.321525	11.117699	0.000000	-0.247849	0.367640	-0.246397	-0.460280	0.488961	-0.261797	-0.407191	0.893880	-0.261797	-0.283266	0.893880	-0.215597	-0.230152	0.749692	-0.200198	-0.141621	0.569475	-0.184798	-1.770359	4.158819	-1.370387	0.000000	0.000000	27.816154	-0.075844	0.598562	-7.240904	-16.948130	14.312261	32.962323	84.216368	-8.817648	4.457857	3.370003	-13.009437	110.092745	3.788134	4.913055	-1.374082	-12.389780
5.566667	1.013262	1.428632	87.914133	0.247212	0.877972	0.648595	-2.961745	0.995289	9.071691	4.575826	0.079863	29.448281	-12.991609	0.000000	-4.317873	-2.196596	-0.430111	2.264781	0.039528	36.866254	11.858622	0.000000	-0.260023	0.357271	-0.267933	-0.482889	0.475171	-0.284679	-0.427192	0.868669	-0.284679	-0.297180	0.868669	-0.234441	-0.241457	0.728548	-0.217696	-0.148577	0.553413	-0.200950	-1.857318	4.041524	-1.490163	0.000000	0.000000	27.758958	0.096160	0.824300	-7.151412	-16.906341	14.685107	32.828195	84.024297	-8.906832	4.646930	3.303754	-12.900288	111.301351	3.658743	4.790925	-1.496934	-12.319767
5.583333	0.892000	1.580128	87.778768	0.247367	0.878052	0.648042	-3.046916	0.873786	9.469876	4.652622	0.081204	29.893386	-13.001924	0.000000	-4.177833	-2.090839	-0.952285	2.852177	0.049780	37.428121	12.380700	0.000000	-0.272789	0.349320	-0.298269	-0.506596	0.464595	-0.316911	-0.448165	0.849336	-0.316911	-0.311770	0.849336	-0.260985	-0.253312	0.712333	-0.242344	-0.155871	0.541096	-0.223702	-1.948503	3.951576	-1.658883	0.000000	0.000000	27.665372	0.233901	1.088217	-7.010749	-16.848788	14.905243	32.617446	84.208432	-8.944162	4.791864	3.216844	-12.764705	112.693879	3.521148	4.496908	-1.637120	-12.159756
5.600000	0.757875	1.722232	87.587485	0.247493	0.878127	0.647721	-3.085997	0.726476	9.778375	4.756981	0.083025	30.415505	-12.739355	0.000000	-3.986778	-1.961696	-1.535371	3.490983	0.060929	37.998643	12.777048	0.000000	-0.285649	0.342343	-0.328809	-0.530479	0.455316	-0.349359	-0.469293	0.832373	-0.349359	-0.326468	0.832373	-0.287707	-0.265254	0.698106	-0.267157	-0.163220	0.530290	-0.246606	-2.040362	3.872655	-1.828734	0.000000	0.000000	27.484468	0.323217	1.337183	-6.750763	-16.845905	15.515229	32.280357	83.846777	-9.016508	4.770812	3.112184	-12.620463	113.796118	3.433938	4.474082	-1.885209	-11.919462
5.616667	0.613442	1.852491	87.342408	0.247609	0.878187	0.647574	-3.108887	0.555354	10.095177	4.834405	0.084376	30.942432	-12.362373	0.000000	-3.772554	-1.813007	-2.097400	4.125306	0.072000	38.559363	12.976841	0.000000	-0.297595	0.336644	-0.364701	-0.552664	0.447737	-0.387494	-0.488919	0.818517	-0.387494	-0.340122	0.818517	-0.319113	-0.276347	0.686485	-0.296319	-0.170046	0.521462	-0.273526	-2.125694	3.808187	-2.028356	0.000000	0.000000	27.254146	0.359179	1.575610	-6.373225	-16.885426	16.455753	31.814258	83.166677	-9.103392	4.588267	2.972416	-12.466365	114.662338	3.374056	4.583415	-2.194849	-11.610315
5.633333	0.452922	1.980094	87.058676	0.247712	0.878232	0.647631	-3.121050	0.364822	10.623602	4.903258	0.085578	31.342242	-12.271145	0.000000	-3.551849	-1.638472	-2.708605	4.740115	0.082731	39.103657	13.092017	0.000000	-0.310861	0.331127	-0.402272	-0.577301	0.440399	-0.427414	-0.510714	0.805103	-0.427414	-0.355283	0.805103	-0.351988	-0.288666	0.675235	-0.326846	-0.177626	0.512916	-0.301704	-2.220451	3.745777	-2.237314	0.000000	0.000000	26.948105	0.333084	1.766194	-5.930576	-16.933623	17.508702	31.268330	82.461236	-9.162854	4.259641	2.824335	-12.295937	115.660532	3.270275	4.473839	-2.425545	-11.291973
5.650000	0.286735	2.088923	86.719827	0.247822	0.878241	0.647873	-3.090349	0.158333	11.078154	5.009948	0.087440	31.720668	-12.048701	0.000000	-3.319153	-1.456809	-3.455157	5.335324	0.093119	39.633380	13.221119	0.000000	-0.322108	0.326919	-0.433418	-0.598187	0.434803	-0.460506	-0.529192	0.794872	-0.460506	-0.368138	0.794872	-0.379241	-0.299110	0.666654	-0.352152	-0.184053	0.506398	-0.325063	-2.300788	3.698176	-2.410540	0.000000	0.000000	26.528348	0.230743	1.881023	-5.456909	-17.002475	18.677556	30.653359	81.468182	-9.190709	3.760687	2.689913	-12.134801	116.452740	3.211057	4.499850	-2.688873	-10.917663
5.666667	0.121383	2.186886	86.347936	0.247916	0.878212	0.648248	-3.057044	-0.050387	11.662417	5.104776	0.089095	31.956028	-12.023600	0.000000	-3.111829	-1.262965	-4.180675	5.859680	0.102271	40.082878	13.249970	0.000000	-0.333598	0.323987	-0.460109	-0.619524	0.430902	-0.488866	-0.548067	0.787741	-0.488866	-0.381269	0.787741	-0.402595	-0.309779	0.660674	-0.373838	-0.190618	0.501855	-0.345082	-2.382854	3.665002	-2.558987	0.000000	0.000000	26.055557	0.038488	1.883305	-4.955595	-17.079373	19.958315	29.981936	80.355994	-9.190489	3.104202	2.565070	-11.963298	117.223134	3.117482	4.439033	-2.868357	-10.540351
5.683333	-0.029469	2.266507	85.951774	0.247986	0.878150	0.648703	-3.017229	-0.248844	12.273024	5.187999	0.090548	32.059296	-12.081827	0.000000	-2.934114	-1.061526	-4.599482	6.303837	0.110023	40.373384	12.835409	0.000000	-0.343052	0.323581	-0.480022	-0.637082	0.430363	-0.510024	-0.563600	0.786756	-0.510024	-0.392074	0.786756	-0.420020	-0.318558	0.659847	-0.390018	-0.196020	0.501228	-0.360017	-2.450385	3.660418	-2.669740	0.000000	0.000000	25.511117	-0.250575	1.779908	-4.438873	-17.177132	21.401707	29.240443	79.131511	-9.218867	2.223325	2.451145	-11.789304	117.825145	3.028776	4.373432	-3.001012	-10.155495
5.700000	-0.168417	2.344210	85.504076	0.248075	0.878077	0.649214	-2.980596	-0.440895	12.954988	5.268247	0.091948	32.077763	-12.207665	0.000000	-2.817365	-0.853620	-4.935168	6.651615	0.116093	40.544822	12.291142	0.000000	-0.353286	0.324600	-0.482199	-0.656088	0.431718	-0.512336	-0.580414	0.789232	-0.512336	-0.403771	0.789232	-0.421924	-0.328061	0.661924	-0.391786	-0.201868	0.502805	-0.361649	-2.523487	3.671936	-2.681844	0.000000	0.000000	24.900635	-0.592319	1.550246	-3.942423	-17.288828	22.909515	28.486543	77.904377	-9.313121	1.218749	2.372097	-11.621345	118.396472	2.940197	4.263730	-3.071369	-9.773171
5.716667	-0.274585	2.417930	85.039958	0.248155	0.878019	0.649685	-2.965530	-0.602677	13.713063	5.307562	0.092634	32.004396	-12.456992	0.000000	-2.770159	-0.666184	-5.160845	6.884241	0.120153	40.594471	11.663892	0.000000	-0.362299	0.329022	-0.471944	-0.672825	0.437599	-0.501441	-0.595220	0.799983	-0.501441	-0.414071	0.799983	-0.412951	-0.336430	0.670941	-0.383455	-0.207017	0.509655	-0.353958	-2.587862	3.721959	-2.624813	0.000000	0.000000	24.221088	-0.994709	1.203361	-3.502020	-17.408510	24.355026	27.736525	76.851198	-9.470880	0.067031	2.304436	-11.458606	118.749136	2.874869	4.163192	-3.080837	-9.422236
5.733333	-0.357225	2.505067	84.583801	0.248213	0.878017	0.650056	-2.991120	-0.747638	14.369160	5.301698	0.092532	31.913155	-12.609135	0.000000	-2.808005	-0.489484	-5.239427	7.000736	0.122186	40.536408	10.954848	0.000000	-0.371693	0.335035	-0.454106	-0.690272	0.445596	-0.482487	-0.610655	0.814604	-0.482487	-0.424808	0.814604	-0.397343	-0.345154	0.683203	-0.368961	-0.212386	0.518969	-0.340579	-2.654968	3.789982	-2.525600	0.000000	0.000000	23.478401	-1.411386	0.748696	-3.122116	-17.539468	25.753059	27.024187	75.970613	-9.695427	-1.131647	2.237204	-11.310426	118.935452	2.830339	4.116572	-3.072546	-9.141280
5.750000	-0.404678	2.602671	84.129327	0.248246	0.878088	0.650273	-3.052299	-0.865025	14.931128	5.256836	0.091749	31.826600	-12.656424	0.000000	-2.935981	-0.333843	-5.190003	6.985030	0.121912	40.394633	10.202172	0.000000	-0.379889	0.344017	-0.427691	-0.705491	0.457543	-0.454422	-0.624119	0.836443	-0.454422	-0.434175	0.836443	-0.374230	-0.352765	0.701520	-0.347499	-0.217068	0.532883	-0.320768	-2.713506	3.891591	-2.378689	0.000000	0.000000	22.661275	-1.905682	0.135851	-2.825879	-17.694452	27.068170	26.376228	75.292951	-9.971824	-2.360493	2.156050	-11.167688	118.971954	2.815333	4.102621	-3.094705	-8.933603
